<?xml version="1.0" standalone="no"?>
<!DOCTYPE svg PUBLIC "-//W3C//DTD SVG 20010904//EN"
 "http://www.w3.org/TR/2001/REC-SVG-20010904/DTD/svg10.dtd">
<svg version="1.0" xmlns="http://www.w3.org/2000/svg"
 width="240.000000pt" height="240.000000pt" viewBox="0 0 240.000000 240.000000"
 preserveAspectRatio="xMidYMid meet">
<metadata>
Created by potrace 1.14, written by Peter Selinger 2001-2017
</metadata>
<g transform="translate(0.000000,240.000000) scale(0.100000,-0.100000)"
fill="#000000" stroke="none">
<path d="M1536 2083 c-15 -15 -3 -51 29 -92 40 -50 83 -83 170 -131 33 -18 83
-46 110 -61 50 -28 143 -65 187 -75 84 -20 117 -23 236 -24 l132 0 0 118 0
117 -332 -1 c-329 -1 -334 -1 -383 22 -64 29 -136 90 -129 108 6 15 -9 29 -20
19z"/>
<path d="M731 1847 c-36 -78 -91 -198 -123 -266 -32 -68 -58 -125 -58 -126 0
-3 -56 -123 -120 -260 -16 -33 -51 -109 -79 -168 l-50 -108 -52 6 c-57 7 -89
23 -89 42 0 7 -4 13 -10 13 -5 0 -10 -11 -10 -23 0 -46 154 -107 430 -171 85
-20 193 -48 240 -63 47 -15 87 -27 90 -28 3 0 29 -13 58 -28 160 -81 276 -202
312 -324 l13 -43 154 0 153 0 -24 49 c-14 27 -38 77 -55 112 -120 263 -155
337 -199 431 -28 59 -61 128 -73 155 -12 26 -40 86 -62 133 -61 131 -114 243
-177 380 -53 116 -86 186 -169 363 -17 37 -32 67 -34 67 -1 -1 -31 -65 -66
-143z m79 -426 c0 -5 18 -47 39 -93 70 -150 191 -419 191 -424 0 -3 -12 -3
-27 0 -61 13 -222 24 -378 27 -49 1 -83 4 -74 6 9 2 59 103 125 248 96 216
124 269 124 236z"/>
<path d="M1200 1932 c-6 -2 -10 -49 -10 -118 l0 -114 28 -1 c15 0 120 -1 235
-1 l207 0 0 -699 0 -699 135 0 135 0 0 655 c0 360 4 655 8 655 17 0 52 -47 52
-68 0 -25 18 -30 26 -7 32 82 -246 294 -486 370 -70 22 -105 27 -202 29 -65 0
-122 0 -128 -2z"/>
<path d="M216 760 c-44 -94 -123 -263 -166 -355 -18 -38 -36 -78 -42 -88 -8
-16 1 -17 132 -17 l141 0 45 97 c25 54 61 133 81 175 l36 77 50 -25 c27 -14
52 -34 54 -45 6 -22 26 -20 31 3 5 24 -40 61 -138 114 -51 27 -113 69 -140 94
l-48 45 -36 -75z"/>
</g>
</svg>
